<svg t="1648785493068" class="icon" viewBox="0 0 1024 1024" version="1.1" xmlns="http://www.w3.org/2000/svg" p-id="5699" width="200" height="200"><path d="M810.666667 704v256a21.333333 21.333333 0 0 1-32.146667 18.386667L426.666667 771.42l-351.853334 206.966667A21.333333 21.333333 0 0 1 42.666667 960V96a53.393333 53.393333 0 0 1 53.333333-53.333333h661.333333a53.393333 53.393333 0 0 1 53.333334 53.333333v53.333333a21.333333 21.333333 0 0 1-42.666667 0v-53.333333a10.666667 10.666667 0 0 0-10.666667-10.666667H96a10.666667 10.666667 0 0 0-10.666667 10.666667v826.7l330.52-194.42a21.333333 21.333333 0 0 1 21.626667 0L768 922.7V704a21.333333 21.333333 0 0 1 42.666667 0z m149.333333-320h-149.333333V234.666667a21.333333 21.333333 0 0 0-42.666667 0v149.333333H618.666667a21.333333 21.333333 0 0 0 0 42.666667h149.333333v149.333333a21.333333 21.333333 0 0 0 42.666667 0V426.666667h149.333333a21.333333 21.333333 0 0 0 0-42.666667z" fill="#ffffff" p-id="5700"></path></svg>