<svg xmlns="http://www.w3.org/2000/svg" viewBox="0 0 32 32"><path d="M26,5H6a5,5,0,0,0-5,5V22a5,5,0,0,0,5,5H26a5,5,0,0,0,5-5V10A5,5,0,0,0,26,5ZM20,7V25H12V7ZM3,22V10A3,3,0,0,1,6,7h4V25H6A3,3,0,0,1,3,22Zm26,0a3,3,0,0,1-3,3H22V7h4a3,3,0,0,1,3,3Z"/><path d="M8.5 15h-1V14a1 1 0 0 0-2 0v1h-1a1 1 0 0 0 0 2h1v1a1 1 0 0 0 2 0V17h1a1 1 0 0 0 0-2zM27.62 13.88a1 1 0 0 0-1.41 0l-.71.71-.71-.71a1 1 0 0 0-1.41 1.41l.71.71-.71.71a1 1 0 0 0 0 1.41 1 1 0 0 0 1.41 0l.71-.71.71.71a1 1 0 0 0 1.41 0 1 1 0 0 0 0-1.41L26.91 16l.71-.71A1 1 0 0 0 27.62 13.88z"/></svg>